<?xml version="1.0" encoding="UTF-8" standalone="no"?>
<!-- Generator: Adobe Illustrator 18.0.0, SVG Export Plug-In . SVG Version: 6.00 Build 0)  -->

<svg
   version="1.1"
   id="Capa_1"
   x="0px"
   y="0px"
   viewBox="0 0 60 60"
   style="enable-background:new 0 0 60 60;"
   xml:space="preserve"
   sodipodi:docname="server-svgrepo-com.svg"
   inkscape:version="1.1.2 (0a00cf5339, 2022-02-04, custom)"
   xmlns:inkscape="http://www.inkscape.org/namespaces/inkscape"
   xmlns:sodipodi="http://sodipodi.sourceforge.net/DTD/sodipodi-0.dtd"
   xmlns="http://www.w3.org/2000/svg"
   xmlns:svg="http://www.w3.org/2000/svg"><defs
   id="defs89" /><sodipodi:namedview
   id="namedview87"
   pagecolor="#ffffff"
   bordercolor="#666666"
   borderopacity="1.0"
   inkscape:pageshadow="2"
   inkscape:pageopacity="0.0"
   inkscape:pagecheckerboard="0"
   showgrid="false"
   inkscape:zoom="12.95"
   inkscape:cx="15.945946"
   inkscape:cy="30"
   inkscape:window-width="1920"
   inkscape:window-height="1051"
   inkscape:window-x="0"
   inkscape:window-y="29"
   inkscape:window-maximized="1"
   inkscape:current-layer="Capa_1" />
<g
   id="g54"
   style="fill:#dcf64b;fill-opacity:1">
	<path
   d="M58.199,48.02c-0.549-0.103-1.069,0.241-1.18,0.781C55.903,54.303,51.574,58,46.249,58c-5.028,0-9.446-3.3-10.948-8H40v-2   h-8v8h2v-3.849C36.169,56.833,40.915,60,46.249,60c6.304,0,11.42-4.341,12.731-10.801C59.09,48.657,58.74,48.13,58.199,48.02z"
   id="path2"
   style="fill:#dcf64b;fill-opacity:1" />
	<path
   d="M58,40.309C55.75,35.854,51.296,33,46.249,33c-6.109,0-11.541,3.997-13.209,9.721c-0.154,0.53,0.15,1.085,0.681,1.239   c0.531,0.155,1.086-0.15,1.239-0.681C36.358,38.482,41.105,35,46.249,35c4.565,0,8.562,2.766,10.33,7H52v2h8v-8h-2V40.309z"
   id="path4"
   style="fill:#dcf64b;fill-opacity:1" />
	<path
   d="M10.5,6C8.019,6,6,8.019,6,10.5S8.019,15,10.5,15s4.5-2.019,4.5-4.5S12.981,6,10.5,6z M10.5,13C9.121,13,8,11.879,8,10.5   S9.121,8,10.5,8S13,9.121,13,10.5S11.879,13,10.5,13z"
   id="path6"
   style="fill:#dcf64b;fill-opacity:1" />
	<circle
   cx="50"
   cy="9"
   r="1"
   id="circle8"
   style="fill:#dcf64b;fill-opacity:1" />
	<circle
   cx="46"
   cy="9"
   r="1"
   id="circle10"
   style="fill:#dcf64b;fill-opacity:1" />
	<circle
   cx="52"
   cy="12"
   r="1"
   id="circle12"
   style="fill:#dcf64b;fill-opacity:1" />
	<circle
   cx="48"
   cy="12"
   r="1"
   id="circle14"
   style="fill:#dcf64b;fill-opacity:1" />
	<circle
   cx="42"
   cy="9"
   r="1"
   id="circle16"
   style="fill:#dcf64b;fill-opacity:1" />
	<circle
   cx="44"
   cy="12"
   r="1"
   id="circle18"
   style="fill:#dcf64b;fill-opacity:1" />
	<circle
   cx="38"
   cy="9"
   r="1"
   id="circle20"
   style="fill:#dcf64b;fill-opacity:1" />
	<circle
   cx="40"
   cy="12"
   r="1"
   id="circle22"
   style="fill:#dcf64b;fill-opacity:1" />
	<circle
   cx="34"
   cy="9"
   r="1"
   id="circle24"
   style="fill:#dcf64b;fill-opacity:1" />
	<circle
   cx="36"
   cy="12"
   r="1"
   id="circle26"
   style="fill:#dcf64b;fill-opacity:1" />
	<path
   d="M60,16.392V4.608C60,2.067,57.933,0,55.392,0H4.608C2.067,0,0,2.067,0,4.608v11.783C0,17.86,0.703,19.155,1.777,20   C0.703,20.845,0,22.14,0,23.608v11.783C0,36.86,0.703,38.155,1.777,39C0.703,39.845,0,41.14,0,42.608v11.783   C0,56.933,2.067,59,4.608,59H28v-2H4.608C3.17,57,2,55.83,2,54.392V42.608C2,41.17,3.17,40,4.608,40H30v-2H4.608   C3.17,38,2,36.83,2,35.392V23.608C2,22.17,3.17,21,4.608,21h50.783C56.83,21,58,22.17,58,23.608V31h2v-7.392   c0-1.469-0.703-2.764-1.777-3.608C59.297,19.155,60,17.86,60,16.392z M4.608,19C3.17,19,2,17.83,2,16.392V4.608   C2,3.17,3.17,2,4.608,2h50.783C56.83,2,58,3.17,58,4.608v11.783C58,17.83,56.83,19,55.392,19H4.608z"
   id="path28"
   style="fill:#dcf64b;fill-opacity:1" />
	<path
   d="M6,29.5c0,2.481,2.019,4.5,4.5,4.5s4.5-2.019,4.5-4.5S12.981,25,10.5,25S6,27.019,6,29.5z M13,29.5   c0,1.379-1.121,2.5-2.5,2.5S8,30.879,8,29.5S9.121,27,10.5,27S13,28.121,13,29.5z"
   id="path30"
   style="fill:#dcf64b;fill-opacity:1" />
	<circle
   cx="50"
   cy="28"
   r="1"
   id="circle32"
   style="fill:#dcf64b;fill-opacity:1" />
	<circle
   cx="46"
   cy="28"
   r="1"
   id="circle34"
   style="fill:#dcf64b;fill-opacity:1" />
	<circle
   cx="52"
   cy="31"
   r="1"
   id="circle36"
   style="fill:#dcf64b;fill-opacity:1" />
	<circle
   cx="48"
   cy="31"
   r="1"
   id="circle38"
   style="fill:#dcf64b;fill-opacity:1" />
	<circle
   cx="42"
   cy="28"
   r="1"
   id="circle40"
   style="fill:#dcf64b;fill-opacity:1" />
	<circle
   cx="44"
   cy="31"
   r="1"
   id="circle42"
   style="fill:#dcf64b;fill-opacity:1" />
	<circle
   cx="38"
   cy="28"
   r="1"
   id="circle44"
   style="fill:#dcf64b;fill-opacity:1" />
	<circle
   cx="40"
   cy="31"
   r="1"
   id="circle46"
   style="fill:#dcf64b;fill-opacity:1" />
	<circle
   cx="34"
   cy="28"
   r="1"
   id="circle48"
   style="fill:#dcf64b;fill-opacity:1" />
	<circle
   cx="36"
   cy="31"
   r="1"
   id="circle50"
   style="fill:#dcf64b;fill-opacity:1" />
	<path
   d="M6,48.5c0,2.481,2.019,4.5,4.5,4.5s4.5-2.019,4.5-4.5S12.981,44,10.5,44S6,46.019,6,48.5z M13,48.5   c0,1.379-1.121,2.5-2.5,2.5S8,49.879,8,48.5S9.121,46,10.5,46S13,47.121,13,48.5z"
   id="path52"
   style="fill:#dcf64b;fill-opacity:1" />
</g>
<g
   id="g56">
</g>
<g
   id="g58">
</g>
<g
   id="g60">
</g>
<g
   id="g62">
</g>
<g
   id="g64">
</g>
<g
   id="g66">
</g>
<g
   id="g68">
</g>
<g
   id="g70">
</g>
<g
   id="g72">
</g>
<g
   id="g74">
</g>
<g
   id="g76">
</g>
<g
   id="g78">
</g>
<g
   id="g80">
</g>
<g
   id="g82">
</g>
<g
   id="g84">
</g>
</svg>
